{"glyphs":{":":{"x_min":0,"x_max":156,"ha":156,"o":"m 24 47 q 35 47 35 36 q 35 30 30 24 q 24 18 18 18 q 7 18 7 29 q 7 35 12 41 q 18 47 24 47 z m 101 170 q 107 170 109 167 q 112 164 112 159 q 112 152 107 147 q 102 141 95 141 q 84 141 84 152 q 84 158 89 164 q 95 170 101 170 z"},"$":{"x_min":0,"x_max":313,"ha":313,"o":"m 147 185 q 143 234 160 266 q 177 299 205 312 q 233 326 262 321 l 300 366 l 305 361 l 271 319 q 289 315 310 294 l 348 337 l 353 332 l 316 289 q 314 289 317 286 q 326 275 326 251 q 326 228 311 213 q 295 198 278 198 q 266 198 249 209 l 189 137 q 198 46 161 18 q 123 -11 65 -8 l 21 -59 l 16 -53 l 55 -7 q 26 0 12 15 l -21 -24 l -26 -18 l 6 20 q -4 36 -3 59 q -2 73 4 87 q 11 100 23 109 q 35 118 49 118 q 58 118 67 114 q 77 110 80 106 z m 268 245 l 305 287 q 288 306 263 310 l 178 209 l 187 147 l 244 215 q 243 218 243 220 q 243 222 242 224 q 243 233 250 240 q 257 247 268 245 z m 310 281 l 274 240 q 280 231 278 222 q 275 212 262 209 q 270 205 276 205 q 287 205 297 211 q 307 217 313 229 q 319 240 319 251 q 319 269 310 281 z m 61 -1 l 160 115 q 152 156 150 177 l 84 100 q 85 96 85 91 q 85 83 77 76 q 70 69 60 71 l 17 22 q 31 6 61 -1 z m 12 27 l 55 77 q 50 82 50 88 q 50 102 66 107 q 61 111 47 111 q 29 111 17 93 q 4 74 4 59 q 4 37 12 27 z m 175 218 l 255 312 q 215 312 195 288 q 175 265 175 218 z m 163 106 l 71 -1 q 93 -2 112 5 q 131 12 144 26 q 156 40 161 61 q 167 82 163 106 z"},"?":{"x_min":0,"x_max":296,"ha":296,"o":"m 259 309 l 264 306 q 242 275 213 255 q 184 235 160 235 q 149 235 142 241 q 135 248 135 259 q 135 279 153 301 q 172 322 200 335 q 229 349 254 349 q 296 349 296 301 q 296 258 273 234 q 250 210 201 181 q 146 148 118 126 q 90 104 61 69 l 53 69 q 67 86 79 99 q 91 111 107 125 q 123 139 159 168 q 189 192 207 207 q 225 223 243 241 q 262 260 273 280 q 285 300 285 317 q 285 342 252 342 q 229 342 203 328 q 177 313 160 293 q 142 273 142 259 q 142 252 147 247 q 152 242 160 242 q 181 242 209 261 q 237 281 259 309 z m 12 25 q 12 31 20 39 q 27 47 33 47 q 40 47 40 39 q 40 34 33 26 q 26 18 20 18 q 12 18 12 25 z"},"<":{"x_min":0,"x_max":427,"ha":427,"o":"m 370 14 l 57 147 l 57 166 l 370 299 l 370 276 l 84 157 l 370 37 z"},"'":{"x_min":0,"x_max":125,"ha":125,"o":"m 90 190 l 96 277 q 99 320 106 341 q 114 362 129 362 q 145 362 145 340 q 145 332 141 318 q 137 305 128 277 l 99 190 z"},"=":{"x_min":0,"x_max":427,"ha":427,"o":"m 57 235 l 370 235 l 370 214 l 57 214 z m 57 99 l 370 99 l 370 78 l 57 78 z m 57 235 l 370 235 l 370 214 l 57 214 z m 57 99 l 370 99 l 370 78 l 57 78 z"},"a":{"x_min":0,"x_max":260,"ha":260,"o":"m 137 188 q 108 188 72 159 q 36 130 10 94 q -17 57 -17 42 q -17 35 -12 30 q -7 25 0 25 q 20 25 58 53 q 95 81 125 116 q 156 151 156 171 q 156 188 137 188 z m 266 128 l 241 107 q 183 58 155 38 q 126 18 105 18 q 91 18 91 34 q 91 51 104 82 q 34 18 1 18 q -14 18 -23 30 q -32 41 -32 63 q -32 88 -18 112 q -3 136 22 155 q 46 173 77 184 q 107 195 136 195 q 150 195 157 190 q 164 185 164 173 q 164 170 163 168 q 163 166 162 162 q 162 158 161 156 l 192 192 l 233 195 l 220 179 q 205 161 195 149 q 185 137 178 129 q 102 46 102 32 q 102 25 109 25 q 118 25 137 36 q 155 47 178 65 q 202 83 231 108 q 261 132 266 136 z"},"L":{"x_min":0,"x_max":594,"ha":594,"o":"m 504 265 q 583 292 647 329 q 710 366 751 402 q 792 439 814 470 q 836 501 836 517 q 836 529 830 537 q 824 545 812 545 q 758 542 697 496 q 637 450 585 385 q 533 320 504 265 z m 223 20 q 188 32 152 39 q 116 46 93 46 q 65 46 50 39 q 34 32 34 22 q 34 -1 105 -1 q 169 -1 223 20 z m 429 219 l 442 240 q 400 230 359 230 q 311 230 276 246 q 242 261 224 289 q 206 316 206 350 q 206 400 247 448 q 289 495 363 523 q 437 552 530 552 l 530 545 q 443 544 372 517 q 300 489 260 445 q 220 400 220 347 q 220 298 258 270 q 296 242 365 240 q 403 239 451 253 q 498 316 554 380 q 610 444 681 498 q 752 552 812 552 q 849 552 849 520 q 849 496 824 461 q 798 426 752 387 q 705 349 640 314 q 575 280 500 256 l 492 245 q 448 185 434 166 q 419 146 394 120 q 368 93 332 68 q 296 42 248 20 q 309 -1 372 -1 q 404 -1 431 9 q 458 20 492 46 q 526 72 600 138 l 600 130 q 548 83 517 56 q 485 30 463 17 q 440 3 419 -2 q 397 -8 372 -8 q 315 -8 239 15 q 205 3 174 -2 q 143 -8 106 -8 q 24 -8 24 22 q 24 53 97 53 q 125 53 152 49 q 179 44 216 31 l 237 24 q 294 56 338 100 q 382 144 429 219 z"},"3":{"x_min":0,"x_max":313,"ha":313,"o":"m 271 288 l 278 288 q 259 254 227 231 q 195 208 167 208 q 144 208 144 231 q 144 251 164 273 q 184 294 215 307 q 247 321 277 321 q 326 321 326 278 q 326 250 301 227 q 275 204 207 178 l 191 172 q 235 172 235 130 q 235 98 203 65 q 171 33 119 12 q 66 -8 6 -8 q -24 -8 -41 3 q -58 14 -58 35 q -58 47 -51 55 q -44 63 -33 63 q -15 63 -15 48 q -15 41 -20 35 q -25 29 -31 29 q -45 29 -48 42 q -50 39 -50 33 q -49 20 -33 9 q -18 -1 4 -1 q 51 0 100 28 q 149 56 182 92 q 216 128 216 147 q 216 155 209 160 q 203 165 195 165 q 171 165 122 143 l 121 149 q 170 169 203 186 q 236 204 259 223 q 310 265 310 293 q 310 302 303 308 q 295 314 286 314 q 250 314 219 298 q 188 282 169 260 q 151 239 151 227 q 151 222 156 219 q 162 215 169 215 q 194 215 224 236 q 253 257 271 288 z"},";":{"x_min":0,"x_max":156,"ha":156,"o":"m -37 -21 l -40 -16 q -20 -6 -9 4 q 2 14 8 25 q 15 36 15 36 q 24 45 32 45 q 41 45 41 35 q 41 23 22 10 q 2 -2 -37 -21 z m 101 170 q 107 170 109 167 q 112 164 112 159 q 112 152 107 147 q 102 141 95 141 q 84 141 84 152 q 84 158 89 164 q 95 170 101 170 z"},"J":{"x_min":0,"x_max":500,"ha":500,"o":"m 455 262 q 481 292 516 331 q 551 371 597 417 q 644 463 697 500 q 750 536 799 548 q 701 551 624 531 q 547 511 496 478 q 446 444 420 405 q 394 366 394 332 q 394 279 455 262 z m 247 2 q 135 -15 38 -39 q -59 -62 -122 -94 q -185 -126 -185 -164 q -185 -181 -165 -192 q -145 -203 -114 -203 q -43 -203 34 -163 q 110 -124 168 -74 q 227 -25 247 2 z m 506 130 q 489 113 469 95 q 449 78 426 64 q 403 51 375 40 q 346 29 297 15 q 263 -18 216 -57 q 169 -96 114 -131 q 59 -166 0 -188 q -60 -210 -115 -210 q -149 -210 -170 -197 q -191 -185 -191 -165 q -191 -56 255 12 q 304 67 364 147 q 425 230 449 255 q 415 268 400 287 q 386 305 386 334 q 386 382 422 426 q 458 470 520 501 q 583 533 667 547 q 750 561 842 552 l 842 545 q 782 547 719 505 q 656 464 599 398 q 542 333 491 257 q 542 257 576 271 q 609 286 628 309 q 647 333 663 366 l 672 366 q 648 306 607 278 q 566 250 502 250 l 485 250 l 466 222 q 423 159 391 118 q 358 78 310 27 q 360 41 392 56 q 425 71 445 86 q 464 101 506 138 z"},"V":{"x_min":0,"x_max":354,"ha":354,"o":"m 94 38 l 60 3 q 127 31 196 87 q 264 143 319 200 q 375 258 454 346 q 485 381 515 412 q 545 443 583 474 q 621 506 666 529 q 711 552 752 552 q 819 552 819 505 q 819 495 813 488 q 807 481 798 481 q 780 481 780 497 q 780 507 786 511 q 792 514 804 514 q 809 514 809 516 q 809 526 793 536 q 778 545 753 545 q 707 545 654 513 q 601 481 549 433 q 498 385 458 339 q 418 294 403 277 q 374 245 333 202 q 293 160 248 120 q 204 81 152 46 q 100 12 45 -8 l 42 -3 q 94 48 128 88 q 161 128 197 184 l 211 206 q 265 290 306 339 l 322 358 q 351 393 425 478 q 397 458 379 450 q 360 441 333 441 q 280 441 280 479 q 280 481 282 493 q 284 504 284 509 q 284 526 268 535 q 251 545 225 545 q 187 545 155 533 q 123 522 100 503 q 77 484 64 462 q 51 440 51 420 q 51 394 71 377 q 91 360 120 360 q 157 360 193 382 q 230 404 258 434 l 263 432 q 234 395 196 374 q 157 353 121 353 q 88 353 66 372 q 44 390 44 418 q 44 453 70 484 q 97 515 139 533 q 181 552 221 552 q 274 552 289 528 q 303 504 303 471 q 303 458 308 453 q 313 448 327 448 q 369 448 402 471 q 436 493 466 527 q 470 532 474 536 q 478 540 481 544 q 485 548 488 550 q 492 552 495 552 q 501 552 496 545 q 490 538 475 523 q 460 509 445 492 q 428 473 403 437 q 377 400 362 374 q 330 319 303 280 q 277 242 247 204 q 217 167 189 137 q 161 106 94 38 z"},"\"":{"x_min":0,"x_max":208,"ha":208,"o":"m 173 190 l 179 277 q 182 319 188 341 q 194 362 211 362 q 228 362 228 341 q 228 333 226 325 q 224 318 210 277 l 182 190 z m 90 190 l 97 277 q 100 319 106 341 q 112 362 129 362 q 145 362 145 341 q 145 327 128 277 l 99 190 z"},"7":{"x_min":0,"x_max":313,"ha":313,"o":"m 190 339 l 139 287 q 144 288 153 292 q 173 300 194 300 q 217 300 249 291 q 276 284 288 284 q 309 284 331 308 q 344 321 349 321 q 359 321 339 302 q 317 284 255 224 q 193 164 166 136 q 141 109 119 86 q 98 62 62 23 q 26 -17 7 -41 l -53 -116 l -112 -116 l 299 275 q 266 263 248 263 q 221 263 194 274 q 175 282 158 282 q 136 282 101 246 l 90 246 l 184 347 q 187 350 191 350 q 194 350 194 347 q 194 343 190 339 z"},"S":{"x_min":0,"x_max":542,"ha":542,"o":"m 534 286 q 586 318 637 356 q 688 393 730 430 q 772 466 795 493 q 819 519 819 530 q 819 545 800 545 q 760 545 711 512 q 662 479 620 427 q 598 400 578 367 q 558 334 534 286 z m 531 278 l 521 259 q 381 -8 136 -8 q 84 -8 55 9 q 25 25 25 53 q 25 65 31 75 q 37 84 50 84 q 59 84 64 78 q 70 72 70 64 q 70 59 65 54 q 61 49 54 49 q 47 49 44 50 q 41 51 36 59 q 34 57 34 48 q 34 38 43 27 q 51 16 76 7 q 101 -1 143 -1 q 229 -1 298 44 q 366 89 408 145 q 450 200 483 262 q 419 244 374 244 q 312 244 271 274 q 231 304 231 350 q 231 400 275 448 q 320 497 399 527 q 478 558 571 558 l 571 552 q 473 551 397 520 q 321 488 282 442 q 242 396 242 354 q 242 308 278 279 q 314 250 372 250 q 429 250 489 271 q 494 277 506 296 q 547 359 589 408 q 631 458 668 489 q 705 520 739 536 q 772 552 799 552 q 826 552 826 531 q 826 498 781 447 q 737 397 668 350 q 600 303 531 278 z"},"}":{"x_min":0,"x_max":365,"ha":365,"o":"m 280 154 q 264 151 244 136 q 224 120 210 97 q 197 73 197 49 q 197 27 205 -16 q 213 -62 213 -76 q 213 -131 183 -176 q 153 -220 99 -236 l 99 -229 q 141 -216 160 -188 q 179 -159 179 -126 q 179 -123 170 -60 q 161 -10 161 7 q 161 52 180 85 q 198 118 223 136 q 248 154 266 159 q 233 169 197 207 q 161 245 161 303 q 161 318 170 371 q 179 438 179 442 q 179 462 170 484 q 161 505 142 523 q 124 541 99 545 l 99 552 q 131 545 157 523 q 184 500 198 466 q 213 433 213 393 q 213 387 205 333 q 197 280 197 260 q 197 235 210 214 q 224 192 243 179 q 263 166 280 163 z"},"Z":{"x_min":0,"x_max":542,"ha":542,"o":"m 549 435 q 604 446 648 466 q 692 487 715 507 q 738 526 738 535 q 738 545 725 545 q 709 545 682 529 q 655 514 616 485 q 578 457 549 435 z m 531 433 l 535 433 l 554 448 q 612 495 656 523 q 699 552 728 552 q 735 552 740 548 q 745 543 745 537 q 745 520 718 497 q 690 475 642 455 q 594 435 543 428 l 434 310 q 456 304 473 304 q 487 304 498 308 q 509 311 523 319 l 526 314 q 506 299 483 293 q 459 287 415 290 q 387 261 328 208 q 270 155 236 129 q 259 138 282 144 q 306 151 332 156 q 358 160 374 160 q 421 160 421 126 q 421 89 371 46 q 341 21 341 8 q 341 -2 358 -2 q 371 -2 399 14 q 427 30 466 62 q 505 94 549 138 l 550 130 q 511 88 474 57 q 437 26 406 9 q 376 -8 358 -8 q 334 -8 334 17 q 334 38 344 57 q 354 76 382 95 q 412 115 412 133 q 412 142 403 147 q 394 153 374 153 q 354 153 299 140 q 245 127 215 113 q 152 60 115 33 q 77 7 57 -2 q 43 -8 36 -8 q 26 -8 26 1 q 26 19 57 39 q 88 59 170 98 l 210 117 l 382 298 q 357 306 340 306 q 315 306 290 284 l 285 287 q 301 307 332 315 q 363 323 401 316 l 465 372 q 479 383 501 401 q 523 420 529 427 q 461 429 461 468 q 461 479 467 493 q 473 506 473 512 q 473 526 450 535 q 427 545 397 545 q 336 545 295 524 q 253 502 235 474 q 216 445 216 425 q 216 401 234 387 q 252 373 283 373 q 326 373 360 392 q 394 410 435 451 l 440 447 q 402 406 365 386 q 327 366 284 366 q 250 366 229 383 q 209 399 209 425 q 209 451 231 481 q 252 511 295 531 q 338 552 395 552 q 439 552 466 538 q 492 523 492 496 q 492 486 486 470 q 482 460 482 456 q 482 433 531 433 z"},"x":{"x_min":0,"x_max":313,"ha":313,"o":"m -6 118 l -6 126 q 33 160 64 177 q 96 195 128 195 q 155 195 155 172 q 155 164 151 144 q 177 170 196 182 q 215 195 241 195 q 253 195 262 188 q 271 181 271 170 q 271 146 250 145 q 235 145 235 160 q 235 166 239 169 q 243 173 248 173 q 256 173 262 164 q 266 176 259 182 q 253 188 240 188 q 224 188 206 176 q 188 164 161 134 q 129 99 114 77 q 98 55 98 42 q 98 25 120 25 q 157 25 208 55 q 258 86 319 138 l 319 130 q 284 97 246 71 q 209 45 176 32 q 144 18 119 18 q 89 18 89 44 q 89 60 99 87 l 85 74 q 77 67 61 52 q 44 37 26 27 q 9 18 -12 18 q -45 18 -45 45 q -45 72 -19 72 q -11 72 -6 67 q -1 63 -1 56 q -1 51 -6 46 q -11 41 -17 41 q -34 41 -35 57 q -43 25 -11 25 q 5 25 19 32 q 33 39 45 49 q 58 60 70 75 q 83 90 85 93 q 125 140 135 153 q 146 166 146 175 q 146 188 129 188 q 97 188 66 170 q 35 152 -6 118 z"},")":{"x_min":0,"x_max":271,"ha":271,"o":"m 350 552 l 358 552 q 341 409 284 291 q 226 174 142 89 q 58 4 -41 -49 q -140 -102 -238 -122 l -239 -115 q -151 -94 -57 -37 q 37 21 124 111 q 211 202 271 314 q 331 427 350 552 z"},"&":{"x_min":0,"x_max":323,"ha":323,"o":"m 129 161 q 178 176 200 190 q 223 204 223 226 q 223 233 220 238 q 217 243 212 246 q 207 249 200 249 q 174 249 153 224 q 132 199 129 161 z m 127 64 q 121 112 121 151 q 62 132 33 98 q 4 64 4 43 q 4 20 29 20 q 70 20 127 64 z m 99 154 l 121 161 q 124 199 148 227 q 171 256 200 256 q 213 256 221 248 q 230 240 230 227 q 230 179 128 153 q 131 125 132 105 q 133 85 135 72 q 164 101 176 115 q 188 130 200 142 q 211 154 226 164 q 241 173 256 173 q 269 173 276 167 q 284 161 284 151 q 284 137 271 137 q 256 137 256 152 q 256 162 258 166 q 236 166 219 150 q 201 134 185 114 q 177 104 164 91 q 151 78 136 63 q 139 13 130 -31 q 122 -74 83 -110 q 59 -132 29 -149 q -2 -166 -34 -175 q -66 -184 -95 -184 q -130 -184 -150 -169 q -169 -154 -169 -128 q -169 -104 -153 -85 q -138 -66 -110 -58 q -82 -49 -47 -54 l -49 -61 q -71 -59 -74 -59 q -98 -59 -118 -69 q -139 -79 -150 -94 q -162 -110 -162 -129 q -162 -151 -141 -164 q -121 -177 -93 -177 q -52 -177 -15 -159 q 22 -141 67 -100 q 108 -62 120 -24 q 131 15 128 55 q 104 38 88 29 q 71 21 58 17 q 44 13 29 13 q 6 13 -9 25 q -24 37 -24 56 q -24 86 4 110 q 33 133 99 154 z"},"_":{"x_min":0,"x_max":500,"ha":500,"o":"m 508 -75 l 508 -125 l -8 -125 l -8 -75 z"},"v":{"x_min":0,"x_max":250,"ha":250,"o":"m -6 118 l -6 126 q 3 134 17 146 q 31 157 47 169 q 62 181 76 188 q 90 195 99 195 q 106 195 111 189 q 115 183 115 173 q 115 135 53 80 q 16 48 16 33 q 16 25 31 25 q 56 25 85 41 q 115 57 141 82 q 168 107 184 130 q 199 152 200 165 q 202 195 211 195 q 220 195 220 182 q 220 168 209 150 q 199 132 176 106 q 184 101 193 101 q 219 101 256 138 l 256 130 q 220 95 195 95 q 183 95 172 101 q 134 62 100 40 q 65 18 26 18 q 16 18 9 25 q 2 32 2 43 q 2 65 17 87 q 33 108 69 136 q 108 165 108 181 q 108 188 98 188 q 84 188 66 175 q 48 163 -6 118 z"},"O":{"x_min":0,"x_max":438,"ha":438,"o":"m 217 268 l 211 268 q 234 327 271 373 q 308 418 347 448 q 387 477 424 491 q 461 505 486 505 q 510 505 525 489 q 539 473 539 446 q 539 398 497 322 q 455 245 388 168 q 320 92 246 42 q 171 -8 108 -8 q 70 -8 47 15 q 23 37 23 82 q 23 133 48 187 q 74 242 125 301 q 176 359 250 419 q 333 485 407 518 q 482 552 549 552 q 591 552 615 534 q 639 517 639 487 q 639 453 618 433 q 596 414 555 403 l 556 410 q 594 419 613 440 q 632 460 632 487 q 632 515 609 530 q 586 545 546 545 q 474 545 396 507 q 319 469 252 400 q 212 359 175 312 q 138 266 107 218 q 77 169 58 129 q 40 88 40 61 q 40 36 57 17 q 75 -1 105 -1 q 166 -1 239 48 q 312 97 380 173 q 448 249 490 324 q 532 399 532 446 q 532 470 520 485 q 508 499 487 499 q 462 499 424 484 q 386 468 348 440 q 310 411 274 367 q 238 322 217 268 z"},"(":{"x_min":0,"x_max":271,"ha":271,"o":"m 39 -122 l 31 -122 q 53 67 145 210 q 236 354 364 439 q 493 524 627 552 l 628 545 q 541 524 445 466 q 350 408 265 319 q 179 230 118 116 q 58 2 39 -122 z"},"C":{"x_min":0,"x_max":458,"ha":458,"o":"m 250 281 q 330 301 406 331 q 482 361 539 395 q 596 428 626 460 q 657 491 657 518 q 657 545 627 545 q 578 545 510 505 q 443 465 376 406 q 309 346 250 281 z m 187 265 q 103 260 67 290 q 32 320 32 367 q 32 393 48 424 q 63 455 102 484 q 140 513 208 532 q 277 552 379 552 l 379 545 q 272 545 203 524 q 133 503 99 474 q 64 445 52 417 q 39 388 39 365 q 39 320 75 293 q 112 266 193 271 q 233 314 291 364 q 348 414 409 456 q 470 499 527 525 q 584 552 627 552 q 664 552 664 517 q 664 480 604 431 q 545 383 448 340 q 352 298 243 274 q 196 222 167 183 q 139 145 125 115 q 112 85 112 60 q 112 36 135 17 q 157 -1 194 -1 q 244 -1 294 25 q 345 51 379 90 q 412 128 412 161 q 412 188 397 201 q 382 214 354 214 q 317 214 266 180 q 215 147 166 56 l 159 61 q 204 145 255 183 q 307 221 355 221 q 387 221 403 205 q 419 189 419 162 q 419 134 399 104 q 379 75 345 49 q 311 23 271 8 q 232 -8 196 -8 q 147 -8 121 16 q 94 40 94 86 q 94 127 115 167 q 135 208 187 265 z"},"W":{"x_min":0,"x_max":510,"ha":510,"o":"m 528 264 q 558 295 612 352 q 667 408 717 451 q 766 494 818 523 q 869 552 913 552 q 941 552 958 540 q 974 527 974 506 q 974 495 969 488 q 963 481 955 481 q 939 481 939 496 q 939 511 954 511 q 956 511 959 510 q 963 509 964 509 q 967 509 967 514 q 967 527 952 536 q 938 545 914 545 q 870 545 817 514 q 765 483 722 445 q 679 407 636 362 q 593 317 573 296 q 537 259 481 202 q 425 145 383 104 q 341 64 302 36 q 263 7 227 -9 l 223 -3 q 282 62 309 110 q 408 283 489 375 l 521 411 q 554 448 580 476 q 611 507 607 507 q 604 507 569 474 q 534 442 488 396 q 443 351 410 315 l 391 294 q 356 254 312 208 q 269 163 224 120 q 179 77 134 42 q 88 8 49 -9 l 45 -3 q 77 25 108 69 q 139 112 181 180 q 206 220 207 222 l 214 234 q 292 352 376 436 l 411 471 q 365 439 327 439 q 287 439 287 474 q 287 476 289 489 q 291 502 291 505 q 291 513 283 522 q 275 532 260 538 q 244 545 222 545 q 174 545 135 523 q 96 502 76 471 q 55 440 55 414 q 55 389 74 372 q 94 356 124 356 q 164 356 198 376 q 231 396 265 436 l 268 431 q 206 349 123 349 q 89 349 68 367 q 48 384 48 414 q 48 444 70 476 q 92 509 131 530 q 171 552 223 552 q 262 552 286 534 q 310 517 310 490 q 310 488 309 478 q 308 468 308 467 q 308 446 332 446 q 367 446 403 473 q 438 500 471 533 q 477 539 481 543 q 485 547 488 550 q 491 552 495 552 q 499 552 499 550 q 499 546 477 527 q 425 482 387 432 q 350 382 309 314 q 276 259 259 233 q 242 207 202 159 q 163 112 90 32 l 70 10 q 109 33 145 61 q 181 89 207 113 q 232 137 261 166 q 290 195 339 248 l 374 286 q 415 331 454 372 q 492 413 525 445 q 558 478 590 505 q 623 533 652 552 l 658 547 q 574 453 557 429 q 551 420 528 384 q 505 349 487 322 q 470 294 446 259 q 380 164 349 125 q 317 86 260 25 l 246 10 q 278 27 319 61 q 361 95 399 132 q 438 169 472 205 q 507 242 528 264 z"},"A":{"x_min":0,"x_max":687,"ha":687,"o":"m 499 219 q 490 270 456 312 q 421 353 371 353 q 335 353 316 333 q 296 312 290 290 q 284 268 284 255 q 284 208 300 174 q 316 139 355 99 q 407 139 499 219 z m 506 225 q 604 312 664 362 q 724 413 778 452 q 831 492 873 514 q 915 536 953 544 l 958 540 l 944 527 q 879 466 829 414 q 778 362 721 297 q 664 232 614 171 q 564 109 510 36 q 533 36 563 51 q 594 65 626 89 q 657 112 683 138 l 683 130 q 654 99 602 64 q 551 29 506 29 l 486 0 l 441 0 l 467 34 q 431 41 407 53 q 384 65 355 89 q 312 62 276 41 q 240 21 200 7 q 159 -8 119 -8 q 79 -8 56 7 q 33 22 33 49 q 33 67 44 81 q 56 94 72 94 q 82 94 87 89 q 93 83 93 78 q 93 63 74 63 q 59 63 56 79 q 41 66 41 47 q 41 24 61 12 q 81 -1 118 -1 q 156 -1 197 13 q 237 27 273 48 q 309 68 348 94 q 310 136 293 170 q 277 205 277 247 q 277 292 300 326 q 324 360 370 360 q 421 360 456 323 q 491 285 506 225 z m 764 363 l 777 377 q 797 399 857 456 q 916 513 936 531 q 898 523 837 484 q 777 445 715 396 q 654 346 601 299 q 548 252 509 218 q 515 173 510 138 q 505 103 489 62 q 508 86 536 117 q 564 148 583 168 q 602 188 643 232 q 684 276 764 363 z m 501 212 q 481 193 438 157 q 395 121 361 94 q 391 70 415 58 q 439 45 472 40 q 494 86 500 126 q 506 167 501 212 z"},"f":{"x_min":0,"x_max":198,"ha":198,"o":"m -6 122 l -6 131 q -5 132 10 141 q 24 151 25 152 q 25 167 33 180 q 42 193 50 193 q 63 193 59 174 q 124 207 131 210 l 248 346 q 376 496 436 496 q 447 496 455 489 q 463 482 463 471 q 463 441 424 398 q 385 355 316 307 q 247 259 164 218 l 59 92 q 78 82 94 82 q 129 82 150 95 q 171 108 204 138 l 204 130 q 173 99 150 87 q 128 76 95 76 q 74 76 54 86 l -181 -196 l -220 -196 l -130 -92 q -106 -64 -75 -22 q -43 21 -20 55 q 3 89 24 125 l 23 141 q 16 137 9 132 q 1 127 -6 122 z m 117 196 q 96 186 58 165 q 58 161 55 155 q 52 150 49 146 q 45 141 41 135 q 33 125 33 121 q 35 114 42 107 q 47 114 80 151 q 112 189 117 196 z m 223 289 l 176 232 q 231 260 281 292 q 330 324 370 357 q 410 391 433 421 q 456 450 456 470 q 456 479 451 484 q 445 489 436 489 q 404 489 352 436 q 301 383 223 289 z m 36 100 l 27 116 q 25 114 10 89 q -6 65 -17 49 q -27 32 -40 12 z"},"Q":{"x_min":0,"x_max":469,"ha":469,"o":"m 477 130 q 429 88 397 63 q 366 39 340 23 q 314 7 293 0 q 271 -8 253 -8 q 211 -8 189 9 q 148 -8 108 -8 q 67 -8 45 17 q 22 42 22 84 q 22 153 74 235 q 127 316 212 389 q 298 463 388 507 q 479 552 549 552 q 592 552 615 534 q 639 516 639 483 q 639 451 619 431 q 599 410 557 400 l 557 405 q 595 414 614 435 q 633 456 633 483 q 633 512 612 529 q 591 545 549 545 q 458 545 367 486 q 276 428 204 343 q 131 257 87 176 q 42 95 42 58 q 42 31 60 15 q 78 -1 111 -1 q 143 -1 185 16 q 181 28 179 39 q 169 92 129 92 q 107 92 79 75 l 75 80 q 104 99 128 99 q 152 99 170 85 q 188 70 212 30 q 250 51 276 71 q 302 91 338 126 q 381 168 427 226 q 472 283 503 342 q 534 400 534 445 q 534 468 521 482 q 509 496 487 496 q 448 496 396 468 q 345 440 297 388 q 249 335 219 265 l 211 267 q 228 312 259 355 q 290 398 329 431 q 368 464 409 483 q 451 503 488 503 q 513 503 527 486 q 541 469 541 444 q 541 390 498 317 q 455 244 394 175 q 333 106 292 74 q 266 53 217 24 q 229 8 237 4 q 246 -1 263 -1 q 318 -1 477 138 z"},"w":{"x_min":0,"x_max":375,"ha":375,"o":"m 277 191 l 149 47 q 143 40 143 34 q 143 25 153 25 q 188 25 238 59 q 289 92 312 120 q 327 137 334 167 q 340 195 349 195 q 356 195 356 187 q 356 151 307 103 q 328 99 345 106 q 362 113 381 138 l 381 130 q 366 108 347 100 q 328 92 300 97 q 215 18 150 18 q 130 18 130 37 q 130 73 203 150 q 129 83 83 51 q 37 18 10 18 q -6 18 -6 37 q -6 74 65 153 q 79 167 87 178 q 40 157 -6 118 l -6 126 q 21 147 44 164 q 67 180 99 191 l 140 191 l 23 56 q 8 37 8 33 q 8 31 10 28 q 13 25 15 25 q 34 25 79 58 q 125 91 161 124 q 178 141 200 159 q 221 178 236 191 z"},"-":{"x_min":0,"x_max":177,"ha":177,"o":"m 36 101 l 42 108 l 133 108 l 127 101 z"},"E":{"x_min":0,"x_max":432,"ha":432,"o":"m 313 350 q 380 360 439 391 q 498 422 533 458 q 569 495 569 520 q 569 532 559 538 q 549 544 531 544 q 495 544 450 519 q 406 494 368 450 q 331 406 313 350 z m 311 319 q 314 295 324 283 q 333 271 355 271 q 365 271 372 277 q 379 282 379 291 q 379 305 361 313 q 343 321 311 319 z m 301 324 l 299 339 q 256 333 228 333 q 165 333 128 356 q 91 379 91 422 q 91 445 109 475 q 128 504 183 528 q 237 552 337 552 l 337 545 q 265 545 216 531 q 167 517 142 496 q 118 475 109 455 q 100 435 100 418 q 100 389 130 365 q 160 340 230 340 q 251 340 298 347 q 299 382 308 406 q 317 430 341 457 q 377 498 433 525 q 488 552 533 552 q 554 552 565 543 q 576 535 576 521 q 576 498 554 469 q 531 440 494 413 q 457 387 410 367 q 364 348 312 341 l 310 325 q 344 329 365 320 q 386 311 386 291 q 386 278 376 271 q 366 264 353 264 q 313 264 302 318 q 238 306 191 274 q 143 242 115 204 q 86 165 72 129 q 58 92 58 70 q 58 -1 141 -1 q 194 -1 248 24 q 302 50 336 90 q 371 129 371 169 q 371 191 356 204 q 340 217 314 217 q 281 217 245 199 q 208 182 179 151 q 161 133 150 114 q 139 96 124 62 l 117 62 q 134 102 146 120 q 157 139 176 158 q 242 223 316 223 q 345 223 361 209 q 378 195 378 170 q 378 126 342 85 q 307 43 251 18 q 196 -8 144 -8 q 87 -8 59 21 q 31 50 31 101 q 31 139 52 176 q 74 213 110 242 q 147 272 197 293 q 247 315 301 324 z"},"s":{"x_min":0,"x_max":208,"ha":208,"o":"m -6 126 l 96 214 q 108 228 118 240 q 127 252 132 252 q 136 252 139 250 q 142 248 142 243 q 142 234 115 220 q 131 197 138 179 q 145 162 146 135 q 145 118 142 107 q 160 103 174 108 q 188 113 214 138 l 214 130 q 194 105 178 100 q 161 94 139 100 q 127 74 101 55 q 75 36 47 27 q 19 18 -1 18 q -20 18 -32 26 q -44 33 -44 47 q -44 59 -37 67 q -30 74 -16 74 q -7 74 -2 70 q 4 65 4 57 q 4 51 -2 46 q -8 41 -15 41 q -24 41 -29 56 q -35 52 -35 43 q -35 38 -25 31 q -15 25 -2 25 q 24 25 53 47 q 82 69 101 103 q 120 137 120 168 q 120 190 106 214 l -6 118 z"},">":{"x_min":0,"x_max":427,"ha":427,"o":"m 57 299 l 370 166 l 370 147 l 57 14 l 57 37 l 343 156 l 57 276 z"},"l":{"x_min":0,"x_max":156,"ha":156,"o":"m 301 423 l 325 449 l 363 449 l 55 105 q 0 44 0 34 q 0 25 10 25 q 27 25 49 39 q 71 54 108 87 q 146 121 163 136 l 163 128 q 97 67 66 42 q 35 18 10 18 q 1 18 -5 25 q -11 31 -11 40 q -11 65 13 98 q 38 131 79 176 q 82 180 97 197 q 111 213 125 230 q 91 205 -5 119 l -5 127 l 134 247 q 159 269 301 423 z"},"8":{"x_min":0,"x_max":313,"ha":313,"o":"m 194 184 q 270 207 292 229 q 315 250 315 274 q 315 292 302 303 q 290 314 268 314 q 245 314 223 303 q 202 292 188 275 q 174 258 174 242 q 174 227 194 184 z m 166 171 q 100 146 73 135 q 45 123 22 100 q -1 77 -1 43 q -1 24 9 12 q 19 -1 52 -1 q 83 -1 113 13 q 144 27 164 50 q 184 74 184 100 q 184 128 166 171 z m 163 177 q 152 197 152 217 q 152 243 168 267 q 184 291 210 306 q 237 321 269 321 q 293 321 309 307 q 324 294 324 273 q 324 239 293 219 q 262 200 196 178 q 209 151 209 128 q 209 93 187 62 q 165 31 127 11 q 90 -8 50 -8 q 19 -8 2 5 q -15 18 -15 41 q -15 89 31 117 q 78 146 163 177 z"},"\\":{"x_min":0,"x_max":156,"ha":156,"o":"m -58 -81 l -79 -80 l 228 438 l 250 438 z"},"e":{"x_min":0,"x_max":198,"ha":198,"o":"m 31 116 q 71 116 99 126 q 127 137 141 151 q 156 165 156 174 q 156 188 139 188 q 117 188 88 169 q 59 149 31 116 z m 204 138 l 204 130 q 149 75 104 47 q 59 18 12 18 q -29 18 -29 65 q -29 104 1 134 q 30 163 70 179 q 110 195 135 195 q 149 195 157 188 q 165 182 165 171 q 165 154 147 140 q 129 126 97 117 q 64 108 21 107 q -16 65 -16 43 q -16 35 -8 30 q 0 25 12 25 q 91 25 204 138 z"},"b":{"x_min":0,"x_max":240,"ha":240,"o":"m 213 322 l 327 449 l 369 449 l 54 99 q 21 62 13 43 q 6 25 20 25 q 57 25 98 51 q 138 77 166 111 q 193 145 193 164 q 193 191 208 191 q 214 191 214 185 q 214 153 172 104 q 198 103 211 109 q 225 115 246 138 l 246 130 q 226 107 210 101 q 195 96 166 98 q 129 57 90 38 q 51 18 19 18 q -3 18 -3 39 q -3 57 6 76 q 15 95 37 123 q 42 131 55 145 q 68 160 90 184 q 111 208 130 229 q 148 250 149 251 l -6 118 l -6 126 l 10 140 q 55 179 83 204 q 111 229 146 259 q 180 290 192 301 q 204 312 213 322 z"},"%":{"x_min":0,"x_max":375,"ha":375,"o":"m 277 356 q 248 356 190 297 q 162 268 149 250 q 136 233 136 222 q 136 208 155 208 q 176 208 210 230 q 245 251 271 281 q 297 312 297 334 q 297 344 291 350 q 286 356 277 356 z m -2 48 l 409 325 q 391 320 370 320 q 329 320 304 338 q 304 314 289 290 q 274 265 250 244 q 226 224 200 213 q 174 201 152 201 q 137 201 128 212 q 119 222 119 239 q 119 263 136 286 q 154 310 179 327 q 205 344 230 354 q 255 363 273 363 q 289 363 306 347 q 333 327 370 327 q 386 327 426 337 l 430 331 l 2 42 z m 256 146 q 239 146 205 120 q 171 94 142 61 q 114 29 114 14 q 114 8 120 4 q 126 -1 134 -1 q 153 -1 188 21 q 222 43 249 73 q 276 103 276 127 q 276 136 271 141 q 265 146 256 146 z m 252 153 q 268 153 276 146 q 285 139 285 127 q 285 96 258 65 q 230 33 193 13 q 156 -8 130 -8 q 115 -8 107 2 q 98 12 98 30 q 98 62 125 90 q 153 119 190 136 q 227 153 252 153 z"},"m":{"x_min":0,"x_max":458,"ha":458,"o":"m -6 118 l -6 127 q 30 160 55 177 q 79 195 98 195 q 114 195 114 174 q 114 156 104 140 q 93 124 69 93 q 137 149 172 172 q 206 195 231 195 q 249 195 249 178 q 249 145 200 87 l 214 97 q 247 121 276 143 q 306 165 334 180 q 361 195 378 195 q 386 195 390 189 q 395 183 395 171 q 395 148 380 127 q 365 105 329 78 q 314 67 301 53 q 288 39 288 34 q 288 25 302 25 q 323 25 359 51 q 394 77 464 136 l 464 128 q 397 71 362 44 q 327 18 300 18 q 281 18 281 37 q 281 58 295 80 q 309 101 343 133 q 382 169 382 179 q 382 188 374 188 q 361 188 319 161 q 276 134 225 94 q 173 54 140 23 l 99 23 l 175 106 q 183 114 198 131 q 214 147 226 161 q 237 174 237 179 q 237 182 235 184 q 232 187 228 187 q 201 187 146 145 q 92 102 19 36 l 5 23 l -37 23 l 66 138 q 101 174 101 181 q 101 188 95 188 q 87 188 70 177 q 54 167 34 151 q 15 136 -6 118 z"},"#":{"x_min":0,"x_max":427,"ha":427,"o":"m 41 239 l 141 239 l 167 362 l 188 362 l 162 239 l 300 239 l 326 362 l 347 362 l 322 239 l 386 239 l 386 218 l 317 218 l 291 95 l 386 95 l 386 74 l 287 74 l 262 -49 l 240 -49 l 265 74 l 127 74 l 102 -49 l 80 -49 l 106 74 l 41 74 l 41 95 l 110 95 l 136 218 l 41 218 z m 295 218 l 158 218 l 132 95 l 270 95 z"},",":{"x_min":0,"x_max":165,"ha":165,"o":"m -37 -21 l -40 -16 q -20 -6 -9 4 q 2 14 8 25 q 15 36 15 36 q 24 45 32 45 q 41 45 41 35 q 41 23 22 10 q 2 -2 -37 -21 z"},"n":{"x_min":0,"x_max":323,"ha":323,"o":"m -7 118 l -7 126 q 67 195 97 195 q 114 195 114 174 q 114 157 104 141 q 93 125 62 85 q 123 135 167 165 q 211 195 243 195 q 260 195 260 172 q 260 149 244 127 q 229 105 193 79 q 155 50 155 38 q 155 33 159 29 q 164 25 169 25 q 186 25 214 44 q 242 62 275 92 q 309 121 329 138 l 329 130 q 299 102 271 78 q 243 54 215 36 q 187 18 168 18 q 156 18 151 26 q 146 34 146 42 q 146 61 161 84 q 175 107 201 129 q 231 155 242 171 q 254 187 236 187 q 213 187 167 156 q 120 125 80 91 q 39 56 3 23 l -35 23 l 30 96 q 101 176 101 183 q 101 188 95 188 q 74 188 -7 118 z"},"h":{"x_min":0,"x_max":323,"ha":323,"o":"m 341 449 l 381 449 l 56 81 q 103 120 160 157 q 217 195 237 195 q 259 195 259 171 q 259 143 241 122 q 223 100 192 77 q 154 49 154 35 q 154 25 166 25 q 189 25 229 53 q 269 81 329 136 l 329 128 l 315 115 q 266 70 227 44 q 188 18 166 18 q 144 18 144 39 q 144 79 187 116 q 220 145 232 158 q 244 170 244 180 q 244 183 241 185 q 239 188 235 188 q 216 188 128 125 q 56 73 2 18 l -40 18 l 219 313 l -6 118 l -6 126 l 134 249 q 193 300 224 329 q 255 357 280 382 q 304 408 341 449 z"},"z":{"x_min":0,"x_max":211,"ha":211,"o":"m -6 126 l 51 173 q 48 186 56 195 q 64 204 76 204 q 90 204 90 191 q 90 185 86 181 q 83 177 77 177 q 65 177 60 183 q 58 176 65 171 q 72 165 87 165 q 122 165 137 177 l 154 191 q 178 212 188 212 q 195 212 195 207 q 195 183 130 166 l 25 77 q 51 85 69 85 q 95 85 95 64 q 95 55 84 44 q 80 40 79 35 q 79 30 83 30 q 93 30 135 64 q 177 99 217 138 l 217 130 q 103 18 69 18 q 62 18 56 23 q 51 27 51 36 q 51 48 67 62 q 76 67 78 73 q 81 78 64 78 q 40 78 -1 53 q -8 46 -15 37 q -21 29 -28 23 q -35 18 -40 18 q -50 18 -50 25 q -50 39 6 69 l 117 162 q 94 158 84 158 q 62 158 55 170 l -6 118 z"},"B":{"x_min":0,"x_max":719,"ha":719,"o":"m 665 278 q 644 305 615 305 q 605 305 599 299 q 592 292 592 283 q 592 264 621 265 q 632 266 642 269 q 652 272 665 278 z m 563 498 l 571 497 q 571 454 543 406 q 515 359 471 319 q 428 280 380 255 q 332 231 295 231 q 265 231 248 249 q 231 267 231 298 q 231 343 263 388 q 294 434 349 470 q 404 507 476 530 q 547 552 624 552 q 659 552 684 547 q 709 543 730 533 q 751 524 776 504 q 800 520 828 533 q 855 546 875 552 l 881 544 q 859 538 830 523 q 801 508 783 497 q 799 479 803 463 q 808 446 808 423 q 808 392 794 366 q 780 340 752 317 q 724 295 677 274 q 688 255 692 240 q 696 225 696 204 q 696 167 675 128 q 655 90 621 60 q 587 29 545 11 q 502 -8 461 -8 q 415 -8 415 31 q 415 59 438 92 q 461 124 500 150 q 539 177 580 188 l 582 181 q 513 157 476 122 q 451 98 436 73 q 422 49 422 29 q 422 -1 462 -1 q 504 -1 543 26 q 583 52 613 93 q 643 134 660 174 q 677 214 677 240 q 677 256 671 270 q 648 258 621 258 q 601 258 593 265 q 585 272 585 284 q 585 295 593 304 q 601 312 616 312 q 645 312 672 281 q 703 298 730 327 q 758 355 773 388 q 789 421 789 449 q 789 479 776 492 q 725 464 669 411 q 613 359 549 265 q 516 215 492 188 q 468 160 431 126 q 392 89 354 62 q 315 36 282 21 q 248 6 215 -1 q 181 -8 144 -8 q 34 -8 34 48 q 34 62 41 70 q 48 78 60 78 q 67 78 72 73 q 77 67 77 60 q 77 54 72 49 q 66 45 61 45 q 52 45 46 53 q 45 55 43 55 q 41 55 41 46 q 41 25 67 12 q 93 -1 141 -1 q 191 -1 230 11 q 270 24 305 50 q 341 77 387 126 q 397 137 420 163 q 442 189 476 229 q 509 268 536 298 q 562 329 573 338 l 603 366 q 673 432 697 451 q 721 471 768 499 q 715 545 626 545 q 545 545 474 522 q 403 499 350 462 q 298 425 268 381 q 239 337 239 299 q 239 271 254 255 q 269 239 295 239 q 330 239 376 263 q 423 287 466 325 q 508 364 536 409 q 563 455 563 498 z"},"K":{"x_min":0,"x_max":698,"ha":698,"o":"m 591 277 q 573 308 546 308 q 535 308 528 302 q 521 297 521 290 q 521 269 555 269 q 569 269 591 277 z m 706 138 l 706 130 q 645 75 614 49 q 582 22 554 7 q 527 -8 502 -8 q 471 -8 471 29 q 471 54 476 71 q 481 89 491 105 q 500 121 510 132 q 521 144 536 160 q 594 222 594 251 q 594 265 592 270 q 573 262 554 262 q 537 262 526 270 q 514 278 514 290 q 514 301 523 308 q 533 315 547 315 q 579 315 598 280 q 628 294 652 312 q 675 329 717 376 q 791 458 851 505 q 912 552 974 552 q 1016 552 1016 526 q 1016 512 1004 512 q 993 512 993 524 q 993 525 994 531 q 995 537 995 538 q 995 542 989 545 q 983 547 973 547 q 897 547 828 466 q 784 414 752 381 q 720 348 680 318 q 641 287 600 272 q 603 256 603 248 q 603 218 583 177 q 562 135 525 91 q 481 39 481 21 q 481 -1 506 -1 q 522 -1 544 10 q 566 22 588 38 q 609 54 636 78 q 663 101 679 115 z m 492 439 l 497 435 q 466 398 431 379 q 396 359 354 359 q 316 359 293 375 q 270 392 270 419 q 270 453 294 484 q 318 515 363 533 q 408 552 466 552 q 548 552 548 494 q 548 492 546 480 q 544 469 544 466 q 544 449 566 449 q 584 449 603 459 q 622 469 641 485 q 661 501 664 504 q 670 508 682 519 q 693 530 704 537 q 714 544 722 544 q 729 544 722 537 q 716 530 709 526 q 695 516 652 480 q 604 437 573 397 q 542 358 492 279 q 465 235 446 209 q 428 182 409 160 q 391 139 370 116 q 332 77 294 49 q 256 22 211 7 q 167 -8 110 -8 q 63 -8 41 10 q 18 27 18 54 q 18 70 26 80 q 35 90 51 90 q 70 90 70 73 q 70 57 51 57 q 34 57 34 76 q 25 71 25 53 q 25 31 46 15 q 68 -1 113 -1 q 161 -1 201 15 q 242 31 274 58 q 306 85 329 113 q 352 140 389 190 q 431 248 452 274 q 473 301 508 343 l 519 356 q 542 383 597 439 l 613 456 q 608 454 600 450 q 591 446 582 444 q 573 441 561 442 q 543 442 533 452 q 522 462 522 479 q 522 478 524 492 q 527 506 527 512 q 527 545 466 545 q 407 545 365 526 q 322 507 300 478 q 278 449 278 420 q 278 396 299 381 q 321 366 355 366 q 430 366 492 439 z"},"R":{"x_min":0,"x_max":698,"ha":698,"o":"m 615 226 q 607 258 580 258 q 569 258 563 252 q 556 247 556 238 q 556 228 565 224 q 573 221 588 221 q 600 221 615 226 z m 561 478 l 567 479 q 556 411 525 360 q 495 310 454 278 q 414 246 375 231 q 336 217 305 217 q 268 217 250 233 q 232 249 232 276 q 232 311 259 357 q 285 404 337 449 q 389 494 463 523 q 538 552 627 552 q 674 552 704 543 q 734 534 764 508 q 804 529 843 541 l 844 536 q 803 521 769 503 q 806 458 806 405 q 806 365 786 330 q 766 295 725 267 q 684 238 624 219 q 624 183 613 160 q 603 137 568 99 q 517 42 517 14 q 517 -1 531 -1 q 548 -1 592 36 q 635 73 703 138 l 703 130 q 655 79 603 35 q 550 -8 531 -8 q 507 -8 507 23 q 507 62 523 90 q 540 119 566 146 q 591 172 601 187 q 611 201 615 217 q 600 214 581 214 q 566 214 557 221 q 549 228 549 238 q 549 250 558 258 q 567 265 580 265 q 609 265 623 229 q 679 249 715 289 q 751 330 767 372 q 782 415 782 442 q 782 475 761 498 q 722 474 691 447 q 660 420 629 382 q 599 344 554 279 l 545 266 q 522 233 510 215 q 498 197 486 183 q 475 169 457 151 q 303 -8 123 -8 q 71 -8 44 8 q 17 23 17 53 q 17 68 25 80 q 34 91 47 91 q 67 91 67 74 q 67 68 62 63 q 56 58 50 58 q 36 58 34 77 q 31 77 27 69 q 24 61 24 52 q 24 27 50 13 q 75 -1 121 -1 q 183 -1 233 18 q 283 38 324 71 q 366 104 400 142 q 435 180 488 245 l 502 262 q 565 340 619 397 q 673 454 755 504 q 732 526 704 535 q 675 545 626 545 q 540 545 467 517 q 394 488 344 445 q 295 402 268 356 q 241 311 241 279 q 241 254 258 239 q 274 224 302 224 q 337 224 377 241 q 417 258 455 292 q 493 326 522 374 q 550 422 561 478 z"},"T":{"x_min":0,"x_max":563,"ha":563,"o":"m 602 465 l 609 465 q 569 385 519 345 q 469 305 431 294 q 394 284 375 284 q 338 284 316 302 q 295 320 295 351 q 295 377 313 410 q 332 443 370 474 q 408 504 469 524 q 529 544 610 544 q 666 544 757 535 q 840 527 883 527 q 924 527 952 532 q 980 537 991 545 l 1000 545 q 980 527 935 517 q 890 506 854 506 q 834 506 747 519 q 622 537 589 537 q 524 537 470 519 q 415 501 377 472 q 339 442 320 410 q 301 378 301 350 q 301 323 321 306 q 340 290 372 290 q 396 290 428 302 q 460 313 492 335 q 523 356 553 391 q 583 425 602 465 z m 508 255 l 521 273 q 642 441 768 503 l 773 499 q 729 476 695 450 q 660 424 633 390 q 605 357 582 316 q 540 241 518 206 q 495 171 471 144 q 438 107 398 78 q 357 49 316 30 q 275 12 230 2 q 185 -8 141 -8 q 83 -8 56 10 q 30 27 30 53 q 30 70 39 80 q 48 91 61 91 q 83 91 83 72 q 83 65 78 60 q 74 55 67 55 q 44 55 52 82 q 43 77 40 71 q 37 64 37 54 q 37 31 63 15 q 89 -1 136 -1 q 207 -1 270 23 q 332 47 364 78 q 383 96 399 114 q 415 132 442 166 q 469 200 508 255 z"},"P":{"x_min":0,"x_max":563,"ha":563,"o":"m 554 472 l 560 470 q 541 397 498 340 q 455 283 401 252 q 347 220 298 220 q 270 220 253 236 q 236 252 236 279 q 236 321 266 369 q 296 417 349 458 q 402 500 471 526 q 540 552 613 552 q 679 552 723 508 q 769 538 805 551 l 807 546 q 769 532 728 501 q 741 483 745 470 q 749 456 749 431 q 749 406 734 373 q 719 339 692 316 q 665 293 633 293 q 620 293 611 302 q 602 312 602 324 q 602 352 628 377 q 655 402 697 415 l 699 410 q 655 396 632 373 q 608 351 608 324 q 608 314 614 307 q 620 300 631 300 q 646 300 664 313 q 682 326 699 350 q 717 373 727 399 q 737 425 737 449 q 737 472 721 495 q 683 467 652 436 q 622 404 601 374 q 580 344 558 303 q 518 225 488 180 q 458 136 425 107 q 385 71 339 45 q 292 19 243 6 q 193 -8 145 -8 q 96 -8 72 9 q 47 25 47 53 q 47 68 58 79 q 69 91 83 91 q 105 91 105 70 q 105 51 83 51 q 75 51 71 54 q 67 58 62 69 l 62 70 q 55 65 55 48 q 55 30 80 14 q 104 -1 146 -1 q 218 -1 280 33 q 342 66 395 125 q 447 183 500 264 q 533 316 561 352 q 588 388 613 414 q 638 440 663 461 q 688 482 716 502 q 680 545 614 545 q 536 545 468 518 q 400 491 350 449 q 300 408 272 362 q 243 316 243 282 q 243 258 258 242 q 272 227 296 227 q 342 227 396 260 q 449 293 493 350 q 537 407 554 472 z"},"|":{"x_min":0,"x_max":490,"ha":490,"o":"m 236 449 l 254 449 l 254 -197 l 236 -197 z"},"t":{"x_min":0,"x_max":188,"ha":188,"o":"m 161 263 l 242 355 l 284 355 l 203 263 l 265 263 l 260 255 l 197 255 l 78 120 q 59 99 35 68 q 11 38 11 35 q 11 25 22 25 q 62 25 194 138 l 194 130 l 168 107 q 67 18 21 18 q 10 18 3 24 q -3 31 -3 39 q -3 59 25 104 q 52 149 133 230 q 83 197 -6 118 l -6 126 q 24 154 68 190 q 112 226 154 255 l 118 255 l 125 263 z"},"M":{"x_min":0,"x_max":729,"ha":729,"o":"m 362 178 q 391 210 453 273 q 516 335 553 370 q 595 409 624 436 q 653 462 674 479 q 695 497 720 514 q 744 532 777 552 l 783 548 q 701 456 682 432 l 673 421 q 670 417 660 405 q 591 325 509 224 q 444 143 417 107 q 391 72 377 51 q 363 29 358 14 q 353 -1 360 -1 q 369 -1 392 18 q 415 38 441 65 q 467 93 526 156 q 540 171 554 186 q 568 202 587 222 q 605 242 622 260 q 689 331 723 364 q 757 397 806 441 l 834 466 q 897 522 948 552 l 954 548 l 934 524 q 832 401 754 304 q 676 207 633 151 q 591 94 566 56 q 541 19 541 10 q 541 -1 552 -1 q 568 -1 598 20 q 628 42 669 79 q 710 116 735 138 l 735 130 q 672 72 643 47 q 615 21 591 7 q 567 -8 548 -8 q 530 -8 530 12 q 530 51 558 104 q 587 157 634 214 q 680 272 750 345 l 927 529 q 876 501 746 378 q 741 373 731 363 q 721 354 700 332 q 678 311 643 273 q 607 235 575 201 l 561 186 q 555 178 547 170 q 485 102 455 69 q 424 37 398 14 q 371 -8 356 -8 q 353 -8 349 -2 q 346 4 346 9 q 346 41 366 81 q 386 121 414 159 q 443 197 473 231 q 553 321 595 367 q 637 413 696 469 l 765 535 q 721 506 697 489 q 674 471 630 432 q 611 416 573 380 q 535 344 504 313 q 473 283 439 249 q 406 214 368 173 q 319 120 299 98 q 279 76 246 49 q 213 22 177 7 q 141 -8 99 -8 q 70 -8 52 4 q 34 17 34 38 q 34 53 41 63 q 47 73 62 73 q 70 73 76 68 q 83 62 83 54 q 83 47 78 42 q 74 37 67 37 q 49 37 54 57 q 54 60 53 61 q 48 61 44 53 q 41 46 41 37 q 41 21 57 10 q 73 -1 96 -1 q 139 -1 177 14 q 214 30 242 53 q 271 77 289 97 q 308 117 362 178 z"},"g":{"x_min":0,"x_max":260,"ha":260,"o":"m 157 169 q 157 177 151 181 q 144 186 135 186 q 107 186 72 158 q 36 130 9 94 q -17 58 -17 41 q -17 35 -11 31 q -5 26 2 26 q 21 26 59 54 q 97 82 127 116 q 157 151 157 169 z m -11 -51 q -102 -90 -145 -113 q -188 -135 -217 -166 q -241 -193 -241 -213 q -241 -223 -234 -229 q -227 -235 -215 -235 q -191 -235 -162 -215 q -133 -195 -93 -151 q -32 -80 -11 -51 z m -2 -40 l 71 52 q 62 47 57 43 q 22 19 2 19 q -32 19 -32 64 q -32 91 -15 115 q 1 139 28 156 q 54 174 83 183 q 111 193 135 193 q 164 193 164 172 q 164 166 160 154 l 194 193 l 235 193 l 53 -14 q 99 8 148 44 q 197 80 266 138 l 266 130 q 219 89 185 62 q 151 36 116 13 q 80 -9 42 -27 q -21 -95 -63 -137 q -105 -180 -133 -202 q -161 -225 -180 -233 q -199 -242 -216 -242 q -230 -242 -239 -234 q -248 -226 -248 -213 q -248 -192 -228 -168 q -207 -144 -169 -119 q -131 -95 -80 -74 l -9 -44 z"},"j":{"x_min":0,"x_max":177,"ha":177,"o":"m 177 293 q 189 293 189 281 q 189 274 184 268 q 179 262 173 262 q 168 262 164 266 q 159 269 159 273 q 159 280 165 287 q 170 293 177 293 z m -147 -131 l -103 -74 q -86 -51 -65 -20 q -135 -59 -179 -86 q -222 -114 -254 -146 q -285 -179 -285 -207 q -285 -231 -263 -231 q -225 -231 -147 -131 z m -6 120 l -6 128 q 29 159 50 172 q 71 186 93 191 l 137 191 l -10 13 q 32 30 86 65 q 140 100 182 136 l 182 128 q 87 46 -21 1 l -31 -11 q -121 -119 -165 -166 q -208 -213 -227 -225 q -246 -238 -263 -238 q -276 -238 -284 -230 q -292 -222 -292 -208 q -292 -166 -222 -111 q -195 -88 -152 -62 q -108 -35 -55 -9 l 91 184 q 72 180 52 166 q 31 151 -6 120 z"},"i":{"x_min":0,"x_max":156,"ha":156,"o":"m 164 294 q 175 294 175 281 q 175 273 170 268 q 166 263 159 263 q 146 263 146 275 q 146 282 151 288 q 157 294 164 294 z m -5 119 l -6 127 q 31 161 81 191 l 125 191 l 10 62 q -2 48 -6 37 q -9 25 0 25 q 24 25 73 61 q 121 97 162 137 l 162 129 q 115 83 71 51 q 27 18 -1 18 q -17 18 -17 35 q -17 86 62 165 q 66 169 70 174 q 74 178 77 181 q 33 155 -5 119 z"},"y":{"x_min":0,"x_max":323,"ha":323,"o":"m 69 -24 q -34 -75 -105 -127 q -176 -180 -176 -215 q -176 -224 -170 -229 q -164 -235 -155 -235 q -138 -235 -116 -223 q -95 -211 -68 -186 q -42 -160 -6 -118 q 13 -95 35 -68 q 58 -41 69 -24 z m -6 118 l -6 126 q 33 160 58 177 q 83 195 102 195 q 117 195 117 175 q 117 132 59 81 q 17 44 17 32 q 17 25 26 25 q 44 25 89 55 q 133 85 181 125 q 229 165 256 191 l 293 191 l 136 12 q 191 34 230 60 q 270 86 329 138 l 329 130 q 273 79 231 51 q 189 24 125 0 l 116 -10 q 14 -124 -49 -183 q -112 -242 -153 -242 q -183 -242 -183 -214 q -183 -193 -156 -162 q -128 -131 -70 -94 q -12 -56 78 -14 q 126 47 202 131 q 150 91 134 78 q 117 65 94 50 q 71 34 53 26 q 36 18 22 18 q 14 18 8 23 q 3 29 3 38 q 3 54 9 69 q 16 83 30 98 q 43 113 67 131 q 109 162 109 179 q 109 188 99 188 q 83 188 56 168 q 30 148 -6 118 z"},"@":{"x_min":0,"x_max":406,"ha":406,"o":"m 276 198 l 254 121 q 236 60 236 47 q 236 43 239 38 q 242 33 250 33 q 278 33 305 70 q 333 106 333 158 q 333 191 317 219 q 301 247 272 262 q 243 277 207 277 q 153 277 115 249 q 78 222 59 179 q 41 137 41 94 q 41 51 60 15 q 79 -21 114 -42 q 148 -62 193 -62 q 243 -62 284 -34 q 325 -7 348 46 l 359 46 q 346 6 319 -21 q 292 -48 258 -61 q 224 -73 191 -73 q 140 -73 101 -51 q 62 -28 42 11 q 22 51 22 99 q 22 148 45 191 q 67 235 110 261 q 153 288 206 288 q 246 288 277 272 q 309 256 326 226 q 344 196 344 155 q 344 104 315 61 q 286 18 238 18 q 207 18 207 45 q 207 56 211 74 q 192 51 173 34 q 154 18 134 18 q 117 18 108 33 q 99 47 99 64 q 99 90 115 122 q 131 154 156 177 q 181 199 206 199 q 233 199 239 173 l 246 194 z m 208 190 q 191 190 173 168 q 155 146 142 116 q 130 86 130 69 q 130 59 136 50 q 143 42 152 42 q 169 42 188 61 q 207 80 219 108 q 232 136 232 162 q 232 173 226 182 q 220 190 208 190 z"},".":{"x_min":0,"x_max":161,"ha":161,"o":"m 24 47 q 35 47 35 36 q 35 30 30 24 q 24 18 18 18 q 7 18 7 29 q 7 35 12 41 q 18 47 24 47 z"},"p":{"x_min":0,"x_max":292,"ha":292,"o":"m 192 306 l 217 306 l 34 86 q 78 121 104 141 q 131 161 161 178 q 191 195 211 195 q 229 195 229 170 q 229 148 215 128 q 200 108 167 82 q 124 49 124 36 q 124 25 138 25 q 163 25 298 138 l 298 130 q 248 87 201 53 q 155 18 137 18 q 114 20 114 41 q 114 75 176 131 q 216 167 216 178 q 216 188 206 188 q 192 188 147 159 q 102 130 55 92 q 8 54 -10 33 l -206 -197 l -249 -197 l 161 267 q 142 249 -6 118 l -6 126 q 17 146 98 219 q 180 292 192 306 z"},"X":{"x_min":0,"x_max":615,"ha":615,"o":"m 541 297 q 671 335 754 375 q 836 416 873 452 q 910 488 910 517 q 910 530 902 538 q 895 545 879 545 q 835 545 776 511 q 716 478 653 421 q 590 363 541 297 z m 471 274 q 366 251 283 219 q 200 188 145 153 q 89 118 61 85 q 33 52 33 26 q 33 -1 76 -1 q 104 -1 146 14 q 188 29 238 61 q 289 92 347 145 q 406 197 471 274 z m 528 483 l 534 481 q 500 413 456 378 q 411 342 377 333 q 342 323 322 323 q 291 323 273 338 q 256 353 256 378 q 256 415 289 456 q 322 497 378 524 q 434 552 499 552 q 526 552 546 542 q 567 531 577 510 q 588 488 588 457 q 588 433 583 412 q 579 391 569 365 q 663 453 743 502 q 824 552 881 552 q 898 552 907 544 q 917 536 917 520 q 917 488 883 451 q 850 414 762 371 q 674 328 532 288 q 478 225 449 186 q 420 146 397 106 q 381 78 373 58 q 365 38 365 26 q 365 14 375 6 q 384 -1 399 -1 q 426 -1 462 17 q 499 35 540 66 q 581 98 622 138 l 622 130 q 480 -8 398 -8 q 378 -8 367 2 q 355 12 355 30 q 355 77 418 182 q 347 114 282 71 q 216 28 166 10 q 115 -8 76 -8 q 52 -8 39 -1 q 26 5 26 25 q 26 68 84 118 q 143 168 246 212 q 349 256 481 283 q 519 329 539 361 q 560 392 569 418 q 578 443 578 470 q 578 504 556 525 q 533 545 500 545 q 432 545 377 516 q 323 488 293 448 q 263 409 263 379 q 263 356 279 343 q 295 330 323 330 q 361 330 400 349 q 439 368 472 403 q 505 437 528 483 z"},"*":{"x_min":0,"x_max":198,"ha":198,"o":"m 143 387 l 148 413 q 180 399 214 370 q 217 402 203 439 l 228 448 q 230 442 230 430 q 230 415 223 369 q 251 383 277 414 l 300 397 q 281 385 228 361 q 259 342 294 338 l 289 309 q 267 319 222 353 q 218 332 235 285 l 207 274 q 207 317 214 355 q 201 348 192 340 q 183 333 160 309 l 138 327 q 144 333 159 340 q 175 347 210 363 q 186 377 143 387 z"},"Y":{"x_min":0,"x_max":448,"ha":448,"o":"m 362 485 l 369 484 q 362 452 331 417 q 300 382 256 360 q 212 338 168 338 q 149 338 134 348 q 118 359 118 384 q 118 421 152 461 q 186 500 238 526 q 291 552 342 552 q 427 552 427 475 q 427 451 418 427 q 410 404 391 378 q 373 352 340 316 l 321 295 q 301 275 301 275 q 250 222 229 196 q 208 171 208 157 q 208 148 216 141 q 224 134 238 134 q 274 134 316 157 q 358 180 394 211 q 430 243 452 269 l 664 504 l 706 504 l 433 195 q 370 124 323 81 q 276 39 228 15 q 179 -8 126 -8 q 99 -8 77 0 q 56 8 44 23 q 32 39 32 58 q 32 76 41 86 q 50 96 66 96 q 84 96 84 80 q 84 65 68 65 q 56 65 51 82 q 46 81 42 73 q 39 66 39 58 q 39 32 64 15 q 89 -1 126 -1 q 174 -1 218 21 q 261 42 297 77 q 333 112 368 157 q 404 203 433 240 q 378 178 326 153 q 273 127 240 127 q 201 127 201 161 q 201 189 224 229 q 247 269 330 352 q 377 399 397 432 q 417 464 417 491 q 417 516 397 530 q 378 545 347 545 q 291 545 239 518 q 187 492 156 454 q 125 416 125 385 q 125 366 137 356 q 149 345 169 345 q 214 345 255 367 q 296 389 325 423 q 354 457 362 485 z"},"c":{"x_min":0,"x_max":198,"ha":198,"o":"m 204 138 l 204 130 q 88 18 11 18 q -9 18 -19 29 q -28 39 -28 66 q -28 89 -13 113 q 2 137 26 156 q 51 174 80 184 q 109 195 137 195 q 150 195 158 188 q 166 182 166 171 q 166 158 156 148 q 146 138 134 138 q 119 138 119 151 q 119 170 136 170 q 146 170 148 161 q 150 158 152 158 q 154 158 157 162 q 159 166 159 171 q 159 179 154 183 q 148 188 139 188 q 113 188 76 160 q 40 132 13 97 q -14 61 -14 41 q -14 25 10 25 q 54 25 96 52 q 138 80 204 138 z"},"!":{"x_min":0,"x_max":161,"ha":161,"o":"m 3 66 l -7 66 q 70 152 173 280 q 196 310 207 324 q 218 338 223 343 q 229 347 237 347 q 247 347 247 335 q 247 328 236 314 q 225 301 193 269 q 182 257 154 229 q 126 200 99 171 z m -42 25 q -42 31 -36 38 q -29 45 -23 45 q -16 45 -16 37 q -16 32 -21 25 q -27 18 -34 18 q -42 18 -42 25 z"},"/":{"x_min":0,"x_max":156,"ha":156,"o":"m -223 -81 l 374 440 l 393 438 l -205 -83 z"},"[":{"x_min":0,"x_max":271,"ha":271,"o":"m -124 -116 l 456 546 l 578 546 l 573 539 l 478 539 l -89 -109 l 35 -109 l 30 -116 z"},"6":{"x_min":0,"x_max":313,"ha":313,"o":"m 201 188 q 170 188 126 156 q 83 124 48 82 q 14 40 14 22 q 14 -1 43 -1 q 73 -1 116 31 q 160 62 192 103 q 224 144 224 165 q 224 175 218 181 q 211 188 201 188 z m 93 140 q 127 169 152 182 q 176 195 201 195 q 234 195 234 159 q 234 115 204 77 q 173 38 129 15 q 84 -8 45 -8 q 3 -8 3 30 q 3 67 33 117 q 64 167 113 214 q 161 260 216 291 q 270 321 315 321 q 331 321 342 314 q 353 307 353 291 q 353 264 332 264 q 326 264 322 270 q 317 275 317 281 q 317 289 322 294 q 327 299 334 299 q 340 299 344 296 q 344 314 312 314 q 286 314 248 292 q 210 271 150 211 q 126 187 93 140 z"},"r":{"x_min":0,"x_max":198,"ha":198,"o":"m -6 126 q 16 144 38 162 q 60 180 81 196 q 77 211 85 223 q 93 235 104 235 q 110 235 115 231 q 120 228 120 222 q 120 216 116 212 q 112 208 106 208 q 100 208 90 218 q 87 214 87 207 q 86 201 92 196 q 97 191 103 191 q 107 191 116 193 q 126 195 128 195 q 132 195 135 188 q 137 180 137 170 q 137 161 125 147 q 113 132 84 100 q 55 67 43 53 q 32 40 32 32 q 32 25 42 25 q 56 25 100 57 q 145 89 204 138 l 204 130 q 73 18 38 18 q 25 18 25 34 q 25 57 34 78 q 43 98 65 123 l 122 186 q 112 182 99 183 q 86 183 83 190 q 18 136 -6 118 z"},"2":{"x_min":0,"x_max":313,"ha":313,"o":"m 240 285 l 246 285 q 221 224 181 189 q 141 155 110 155 q 100 155 93 161 q 85 168 85 178 q 85 212 112 246 q 139 279 178 300 q 218 321 252 321 q 273 321 285 308 q 296 295 296 272 q 296 228 271 196 q 247 163 208 141 q 169 118 111 92 q 62 70 40 59 q 19 48 -6 28 q 21 36 42 37 q 72 36 99 23 q 111 18 120 15 q 128 12 137 12 q 149 12 163 22 q 177 32 195 56 l 201 52 q 178 21 156 6 q 134 -8 109 -8 q 96 -8 66 5 q 31 20 8 20 q -19 20 -53 -8 l -62 -8 q -28 27 69 82 q 156 131 193 161 q 227 189 254 226 q 281 262 281 289 q 281 315 252 315 q 223 315 185 290 q 147 266 120 232 q 93 199 93 178 q 93 162 113 162 q 135 162 173 191 q 210 221 240 285 z"},"{":{"x_min":0,"x_max":365,"ha":365,"o":"m 99 154 l 99 163 q 116 166 135 179 q 155 192 169 214 q 182 235 182 260 q 182 280 174 333 q 166 387 166 393 q 166 453 198 497 q 230 541 280 552 l 280 545 q 255 541 237 523 q 218 505 209 484 q 200 462 200 442 q 200 437 201 426 q 203 416 204 403 q 206 390 209 371 q 218 318 218 303 q 218 245 182 207 q 146 169 113 159 q 131 154 156 136 q 181 118 199 85 q 218 52 218 7 q 218 -10 209 -60 q 200 -123 200 -126 q 200 -159 219 -188 q 238 -217 280 -229 l 280 -236 q 226 -220 196 -175 q 166 -130 166 -76 q 166 -62 174 -16 q 182 27 182 49 q 182 67 174 86 q 165 105 153 119 q 141 133 126 143 q 111 152 99 154 z"},"9":{"x_min":0,"x_max":313,"ha":313,"o":"m 257 314 q 230 314 187 281 q 143 249 109 208 q 75 167 75 145 q 75 125 100 125 q 134 125 178 157 q 222 189 255 229 q 288 270 288 287 q 288 314 257 314 z m 213 174 q 178 145 150 132 q 123 118 98 118 q 81 118 73 126 q 66 135 66 154 q 66 193 96 232 q 125 272 170 296 q 215 321 253 321 q 295 321 295 279 q 295 237 263 187 q 231 137 182 93 q 133 49 79 21 q 25 -8 -14 -8 q -53 -8 -53 21 q -53 32 -47 40 q -42 47 -32 47 q -17 47 -17 32 q -17 21 -24 16 q -31 11 -41 13 q -40 7 -32 3 q -24 -1 -12 -1 q 29 -1 72 30 q 115 61 147 96 q 179 132 213 174 z"}," ":{"x_min":0,"x_max":156,"ha":156,"o":""},"I":{"x_min":0,"x_max":469,"ha":469,"o":"m 444 264 q 512 354 564 405 q 616 455 662 484 q 708 514 774 546 q 675 544 602 521 q 528 498 482 462 q 436 427 415 391 q 393 355 393 329 q 393 274 444 264 z m 118 -1 q 178 -1 229 25 q 280 52 320 93 q 359 134 392 185 q 426 236 439 257 q 408 264 390 285 q 372 306 372 337 q 372 363 391 398 q 411 434 458 469 q 505 505 588 528 q 671 552 794 552 l 794 547 q 724 517 671 479 q 618 440 583 402 q 547 363 525 329 q 503 294 483 257 q 601 258 624 395 l 631 395 q 611 249 477 249 q 454 202 417 157 q 381 112 333 74 q 285 36 230 14 q 175 -8 116 -8 q 73 -8 46 10 q 18 27 18 55 q 18 72 27 82 q 37 93 51 93 q 61 93 67 88 q 73 83 73 73 q 73 54 51 54 q 36 54 32 72 q 27 65 27 54 q 27 27 55 13 q 84 -1 118 -1 z"},"H":{"x_min":0,"x_max":677,"ha":677,"o":"m 628 312 q 759 350 833 392 q 906 434 933 469 q 960 503 960 522 q 960 545 934 545 q 902 545 856 518 q 811 491 762 449 q 713 407 679 372 q 645 336 628 312 z m 399 253 q 293 234 213 192 q 132 151 90 105 q 48 60 48 30 q 48 -1 88 -1 q 118 -1 165 21 q 212 42 273 99 q 334 156 399 253 z m 443 428 l 449 425 q 412 394 379 379 q 347 365 312 365 q 240 365 240 424 q 240 442 251 464 q 262 486 285 506 q 308 527 344 539 q 379 552 430 552 q 469 552 492 538 q 515 524 515 501 q 515 497 512 480 q 510 463 510 465 q 510 452 532 452 q 559 452 585 467 q 612 482 650 517 q 682 546 690 546 q 695 546 695 543 q 695 538 685 532 q 666 519 612 474 q 542 416 460 273 l 573 298 l 625 350 l 653 377 q 732 452 807 502 q 882 552 931 552 q 948 552 957 544 q 967 537 967 524 q 967 483 916 439 q 865 395 786 359 q 706 323 621 303 q 591 266 556 221 q 521 175 496 139 q 471 102 457 73 q 442 44 442 26 q 442 15 450 7 q 458 -1 468 -1 q 489 -1 514 11 q 539 22 569 44 q 598 65 626 89 q 654 113 684 138 l 684 130 q 647 98 623 77 q 598 56 571 35 q 543 15 518 4 q 493 -8 471 -8 q 451 -8 439 5 q 427 19 427 39 q 427 137 565 289 l 455 265 q 452 257 430 229 q 408 201 372 165 q 337 128 288 89 q 250 58 194 25 q 138 -8 85 -8 q 59 -8 50 2 q 41 12 41 29 q 41 67 88 115 q 135 164 220 205 q 304 247 408 263 l 424 283 q 472 342 494 367 q 516 391 584 459 q 548 446 527 446 q 487 446 487 478 q 487 479 490 496 q 492 513 492 513 q 492 545 431 545 q 367 545 325 524 q 284 502 265 474 q 247 446 247 424 q 247 400 264 386 q 280 372 311 372 q 345 372 376 385 q 407 399 443 428 z"},"4":{"x_min":0,"x_max":313,"ha":313,"o":"m -11 83 l 240 315 l 299 315 q 252 283 197 242 q 142 201 93 162 q 44 123 8 91 q 47 99 77 99 q 116 99 166 93 q 202 125 247 169 l 258 180 l 263 175 l 188 91 q 221 86 270 104 l 269 96 q 222 79 181 83 l 104 -3 l 52 -3 q 71 12 155 86 q 115 92 74 92 q 51 92 34 88 q 18 85 -8 78 z"},"~":{"x_min":0,"x_max":427,"ha":427,"o":"m 358 195 l 370 195 q 369 170 360 153 q 351 137 335 127 q 318 118 299 118 q 288 118 274 122 q 261 125 227 139 q 179 160 159 166 q 140 173 125 173 q 79 173 69 118 l 57 118 q 60 147 69 164 q 78 179 93 187 q 108 195 123 195 q 138 195 154 190 q 171 186 215 167 q 262 148 275 144 q 288 140 302 140 q 323 140 339 153 q 355 165 358 195 z"},"D":{"x_min":0,"x_max":677,"ha":677,"o":"m 677 451 q 641 424 612 384 q 583 345 548 282 q 524 239 501 204 q 478 169 442 132 q 406 95 354 63 q 301 32 229 12 q 279 -1 320 -1 q 401 -1 471 38 q 540 78 589 139 q 638 200 665 265 q 691 331 691 379 q 691 414 677 451 z m 204 13 q 164 27 138 34 q 112 40 82 40 q 56 40 39 34 q 23 27 23 17 q 23 -1 83 -1 q 149 -1 204 13 z m 486 473 l 493 473 q 493 423 470 375 q 447 326 409 286 q 371 246 328 223 q 285 200 246 200 q 170 200 170 279 q 170 329 198 378 q 227 428 276 467 q 326 507 388 529 q 449 552 513 552 q 575 552 614 531 q 653 510 680 463 q 700 480 727 496 q 753 512 779 522 l 783 517 q 735 498 683 456 q 693 431 696 416 q 698 400 698 377 q 698 327 672 261 q 646 195 595 133 q 545 71 475 32 q 404 -8 320 -8 q 260 -8 216 8 q 156 -8 93 -8 q 16 -8 16 17 q 16 31 33 39 q 51 47 81 47 q 115 47 145 40 q 174 33 216 16 q 261 29 296 47 q 331 64 360 89 q 389 115 415 146 q 440 178 476 230 q 512 284 551 331 q 589 377 620 409 q 652 441 674 459 q 648 504 611 524 q 573 545 516 545 q 447 545 385 516 q 323 487 278 443 q 232 398 207 350 q 182 302 182 268 q 182 240 199 223 q 216 207 244 207 q 279 207 321 230 q 363 252 401 290 q 438 328 462 377 q 486 426 486 473 z"},"^":{"x_min":0,"x_max":250,"ha":250,"o":"m 148 361 l 273 151 l 245 151 l 143 323 l 41 151 l 13 151 l 139 361 z"},"0":{"x_min":0,"x_max":313,"ha":313,"o":"m 281 314 q 245 314 198 281 q 150 249 105 200 q 61 152 31 103 q 2 54 2 26 q 2 15 10 7 q 18 -1 29 -1 q 62 -1 109 31 q 156 63 201 111 q 246 159 276 208 q 306 256 306 286 q 306 300 300 307 q 293 314 281 314 z m 281 321 q 297 321 306 311 q 315 302 315 285 q 315 245 264 174 q 212 103 144 48 q 76 -8 29 -8 q -10 -8 -10 44 q -10 90 19 139 q 48 188 96 230 q 143 271 193 296 q 244 321 281 321 z"},"F":{"x_min":0,"x_max":552,"ha":552,"o":"m 588 458 l 593 456 q 565 405 527 365 q 488 324 445 302 q 401 280 353 280 q 274 280 274 342 q 274 374 297 409 q 321 445 366 477 q 412 508 475 527 q 538 546 616 546 q 653 546 717 536 q 778 526 819 526 q 867 526 910 550 l 914 546 q 856 505 788 505 q 756 505 689 519 q 647 527 625 530 q 604 532 581 532 q 511 532 454 512 q 396 492 358 462 q 320 432 301 399 q 281 366 281 343 q 281 287 354 287 q 390 287 431 306 q 472 324 513 363 q 555 401 588 458 z m 574 264 q 613 270 625 284 q 638 297 638 306 q 638 324 621 324 q 607 324 596 309 q 585 293 574 264 z m 351 199 l 346 203 q 398 244 492 255 q 563 359 606 410 q 649 460 711 499 l 716 496 q 641 432 612 394 q 583 356 529 258 l 559 262 q 574 296 589 313 q 604 331 622 331 q 645 331 645 306 q 645 286 624 273 q 603 261 572 256 q 567 227 564 191 l 535 180 q 548 235 556 254 l 525 250 q 456 118 358 55 q 259 -8 141 -8 q 98 -8 72 7 q 46 21 46 51 q 46 67 55 79 q 65 91 80 91 q 92 91 98 85 q 104 79 104 69 q 104 50 81 50 q 66 50 62 71 q 53 60 53 51 q 53 29 79 14 q 104 -1 145 -1 q 195 -1 242 16 q 289 33 331 64 q 373 96 411 141 q 450 187 487 247 q 399 235 351 199 z"},"`":{"x_min":0,"x_max":333,"ha":333,"o":"m 296 294 l 290 294 q 255 338 244 383 l 289 383 q 287 330 296 294 z"},"k":{"x_min":0,"x_max":323,"ha":323,"o":"m 130 243 l 215 316 q 247 343 281 380 q 316 418 342 449 l 383 449 l 2 23 l -39 23 l 213 305 q 197 291 180 276 q 163 262 150 251 q 138 240 117 222 q 69 181 59 172 q 48 163 10 131 l -6 118 l -6 126 l 46 171 q 45 171 130 243 z m 328 138 l 328 130 l 304 109 q 246 58 213 38 q 181 18 153 18 q 130 18 130 44 q 130 69 153 97 q 163 109 163 118 q 163 124 157 124 q 156 124 149 123 q 142 122 140 122 q 119 122 119 130 q 119 136 132 136 q 140 136 160 130 q 182 139 208 161 q 232 181 247 188 q 263 195 281 195 q 308 195 308 179 q 308 168 297 168 q 284 168 284 179 l 286 188 q 286 190 283 190 q 259 190 227 161 q 208 144 168 126 q 178 111 178 96 q 178 74 159 55 q 144 38 144 33 q 144 25 155 25 q 179 25 218 51 q 257 77 328 138 z"},"u":{"x_min":0,"x_max":292,"ha":292,"o":"m -6 118 l -6 126 q 26 157 84 191 l 125 191 l 16 67 q -11 36 -11 31 q -11 26 -3 26 q 24 26 85 73 q 146 121 220 191 l 259 191 l 145 61 q 143 59 137 52 q 131 45 128 39 q 125 34 125 30 q 125 25 133 25 q 151 25 201 57 q 250 90 298 138 l 298 130 q 250 82 201 50 q 153 18 131 18 q 114 18 114 35 q 114 51 129 76 q 144 100 175 138 l 184 149 l 166 133 q 107 80 64 49 q 21 18 -3 18 q -21 18 -21 39 q -21 53 -13 69 q -5 85 9 103 q 22 121 37 137 q 52 154 68 172 l 43 157 q 9 132 -6 118 z"},"]":{"x_min":0,"x_max":271,"ha":271,"o":"m 506 546 l -74 -116 l -196 -116 l -191 -109 l -96 -109 l 471 539 l 347 539 l 352 546 z"},"U":{"x_min":0,"x_max":438,"ha":438,"o":"m 309 502 l 316 502 q 303 465 281 434 q 258 403 228 377 q 197 352 165 338 q 133 324 102 324 q 48 324 48 368 q 48 406 82 449 q 117 493 175 522 q 233 552 298 552 q 377 552 377 489 q 377 416 320 350 l 85 83 q 58 51 47 37 q 37 23 37 15 q 37 -1 58 -1 q 103 -1 172 47 q 241 96 305 157 q 370 219 395 248 l 621 504 l 666 504 l 257 38 q 244 23 244 12 q 244 -1 259 -1 q 284 -1 328 35 q 373 70 444 138 l 444 130 q 371 60 329 26 q 287 -8 256 -8 q 247 -8 240 -1 q 234 5 234 16 q 234 63 304 144 q 312 153 313 155 q 315 156 318 158 q 250 95 198 58 q 147 21 115 6 q 82 -8 55 -8 q 36 -8 29 1 q 22 11 22 16 q 22 43 38 72 q 55 100 88 138 l 314 396 q 369 459 369 496 q 369 518 351 531 q 333 545 294 545 q 234 545 179 516 q 124 487 90 445 q 56 403 55 370 q 55 353 68 342 q 81 331 100 331 q 131 331 171 350 q 211 369 249 408 q 286 447 309 502 z"},"o":{"x_min":0,"x_max":208,"ha":208,"o":"m 136 188 q 109 188 73 157 q 38 126 10 89 q -18 52 -18 43 q -18 35 -11 30 q -4 25 7 25 q 33 25 69 51 q 105 76 133 111 q 161 146 161 166 q 161 176 154 182 q 147 188 136 188 z m 214 138 l 214 130 q 187 97 153 97 q 149 98 146 98 q 143 99 138 99 q 60 18 3 18 q -8 18 -17 24 q -26 29 -31 39 q -35 48 -35 60 q -35 93 -6 124 q 22 155 63 175 q 104 195 135 195 q 168 195 168 164 q 168 139 144 106 q 149 104 155 104 q 186 104 214 138 z"},"N":{"x_min":0,"x_max":604,"ha":604,"o":"m 572 385 l 551 271 q 546 242 536 208 q 526 173 511 128 l 603 252 q 703 388 766 451 q 814 499 864 525 q 915 552 960 552 q 1036 552 1036 506 q 1036 493 1029 485 q 1021 476 1012 476 q 1007 476 1003 481 q 999 485 999 491 q 999 498 1003 502 q 1007 506 1013 506 q 1016 506 1020 503 q 1024 501 1027 499 q 1029 499 1029 506 q 1029 546 961 546 q 906 546 842 503 q 777 459 708 377 q 685 349 649 303 q 614 257 575 202 q 537 148 500 95 q 458 35 441 14 q 423 -8 409 -8 q 404 -8 404 -5 q 404 0 418 10 q 449 31 468 64 q 486 97 493 152 l 495 168 q 505 247 521 297 q 536 348 562 411 q 571 433 574 438 l 567 430 l 558 418 q 520 367 476 312 q 433 257 403 221 q 372 186 336 148 q 301 109 280 89 q 255 65 233 48 q 211 31 188 19 q 166 7 141 0 q 115 -8 89 -8 q 53 -8 33 5 q 13 18 13 42 q 13 59 23 70 q 33 81 47 81 q 66 81 66 63 q 66 45 47 45 q 32 45 28 62 q 20 51 20 39 q 20 22 39 10 q 58 -1 86 -1 q 117 -1 145 8 q 173 18 203 37 q 233 57 265 86 q 297 115 336 158 q 380 207 445 284 q 510 362 539 402 l 589 471 q 589 471 606 494 q 623 517 627 524 q 645 552 651 552 q 655 552 655 548 q 655 545 650 539 q 586 461 572 385 z"},"+":{"x_min":0,"x_max":427,"ha":427,"o":"m 57 167 l 203 167 l 203 313 l 224 313 l 224 167 l 370 167 l 370 146 l 224 146 l 224 0 l 203 0 l 203 146 l 57 146 z"},"G":{"x_min":0,"x_max":479,"ha":479,"o":"m 245 278 q 332 292 431 335 q 530 378 598 430 q 666 482 666 522 q 666 545 630 545 q 589 545 539 524 q 489 503 437 465 q 384 427 335 379 q 287 331 245 278 z m 503 253 l 507 248 q 471 223 453 206 q 436 188 408 146 q 375 99 349 68 q 322 38 275 15 q 228 -8 163 -8 q 113 -8 84 10 q 55 29 55 59 q 55 75 63 86 q 71 96 84 96 q 92 96 97 92 q 103 87 103 79 q 103 73 97 69 q 92 64 86 64 q 77 64 68 79 q 63 69 63 58 q 63 31 90 15 q 118 -1 162 -1 q 225 -1 258 21 q 292 42 325 84 q 344 107 366 132 q 388 157 398 168 q 361 144 327 130 q 292 115 253 115 q 215 115 193 135 q 171 154 171 187 q 171 220 194 266 l 189 266 q 95 266 67 303 q 40 341 40 375 q 40 410 62 442 q 84 474 122 499 q 160 523 210 538 q 261 552 317 552 q 346 552 373 548 l 372 542 q 344 545 318 545 q 263 545 215 531 q 167 517 129 492 q 92 468 71 436 q 50 404 50 369 q 50 327 76 305 q 102 283 131 278 q 161 273 197 272 q 206 284 219 302 q 231 320 248 337 q 264 354 282 371 q 300 388 327 407 q 392 454 438 483 q 485 513 534 532 q 584 552 630 552 q 673 552 673 523 q 673 491 632 451 q 591 411 527 375 q 462 338 386 311 q 310 283 241 271 q 215 230 204 207 q 194 183 194 165 q 194 146 210 134 q 227 122 253 122 q 293 122 333 141 q 373 159 414 189 q 455 218 503 253 z"},"q":{"x_min":0,"x_max":240,"ha":240,"o":"m 140 188 q 117 188 79 160 q 42 132 13 96 q -16 61 -16 39 q -16 33 -11 29 q -7 25 0 25 q 19 25 57 53 q 95 81 126 116 q 157 151 157 171 q 157 177 152 183 q 147 188 140 188 z m -99 -197 l -141 -197 l 98 74 q 38 18 1 18 q -29 18 -29 64 q -29 96 -2 126 q 24 157 64 176 q 103 195 138 195 q 164 195 164 174 q 164 164 156 145 l 205 195 l 224 195 l 6 -72 q 23 -57 62 -22 q 101 12 130 38 q 159 63 202 100 q 245 137 246 138 l 246 130 q 118 18 8 -82 q -8 -96 -29 -119 q -49 -142 -99 -197 z"},"d":{"x_min":0,"x_max":260,"ha":260,"o":"m 140 188 q 120 188 83 160 q 46 132 17 96 q -11 61 -11 41 q -11 25 4 25 q 25 25 63 53 q 101 81 131 116 q 160 151 160 170 q 160 188 140 188 z m 161 148 l 425 449 l 465 449 l 157 98 q 147 86 135 72 q 123 57 117 49 q 111 41 109 33 q 107 25 116 25 q 128 25 176 63 q 224 101 266 138 l 266 130 q 208 80 169 49 q 130 18 112 18 q 99 18 99 33 q 99 53 113 84 q 113 84 112 85 q 111 86 111 86 q 43 18 4 18 q -24 18 -24 64 q -24 100 3 130 q 31 161 71 178 q 111 195 142 195 q 167 195 167 174 q 167 159 161 148 z"},"1":{"x_min":0,"x_max":313,"ha":313,"o":"m 47 146 l 44 154 q 77 168 125 192 q 173 215 216 238 q 259 260 297 282 q 334 305 358 321 l 365 321 l 77 -3 l 29 -3 l 324 288 q 176 203 47 146 z"},"5":{"x_min":0,"x_max":313,"ha":313,"o":"m 67 160 l 211 320 q 218 318 226 314 q 255 302 279 302 q 299 302 316 308 q 333 313 355 328 l 358 324 q 333 305 309 297 q 285 289 257 289 q 235 289 199 297 l 111 199 q 135 212 154 219 q 173 226 192 226 q 215 226 225 211 q 235 197 235 164 q 235 117 192 77 q 149 38 91 15 q 34 -8 0 -8 q -27 -8 -40 3 q -53 13 -53 27 q -53 42 -44 54 q -35 65 -22 65 q -5 65 -5 48 q -5 40 -10 35 q -16 31 -24 31 q -34 31 -42 42 q -46 33 -46 27 q -46 -1 0 -1 q 34 -1 72 20 q 110 41 144 72 q 177 104 198 137 q 219 170 219 192 q 219 204 213 212 q 206 219 195 219 q 163 219 133 203 q 103 187 76 160 z"}}}
